# MagicaVoxel @ Ephtracy

# group
g Dead log 3

# material
mtllib Dead log 3.mtl
usemtl palette

# normals
vn -1 0 0
vn 1 0 0
vn 0 0 1
vn 0 0 -1
vn 0 -1 0
vn 0 1 0

# texcoords
vt 0.533203 0.5
vt 0.537109 0.5
vt 0.912109 0.5

# verts
v -14 0 1
v -14 0 -2
v -14 1 2
v -14 1 1
v -14 1 -2
v -14 1 -3
v -14 2 2
v -14 2 1
v -14 4 2
v -14 4 1
v -14 4 -2
v -14 4 -3
v -14 5 1
v -14 5 -2
v -13 1 1
v -13 1 -2
v -13 2 1
v -13 2 -0
v -13 2 -1
v -13 3 -0
v -13 3 -1
v -13 4 1
v -13 4 -2
v -12 2 -0
v -12 2 -1
v -12 3 -0
v -12 3 -1
v -3 4 -2
v -3 4 -3
v -3 5 -2
v -3 5 -3
v -3 5 -4
v -3 6 -3
v -3 6 -4
v -3 6 -5
v -3 6 -6
v -3 7 -4
v -3 7 -5
v -3 8 -4
v -3 8 -6
v 4 2 7
v 4 2 5
v 4 3 7
v 4 3 5
v 5 1 7
v 5 1 5
v 5 1 2
v 5 2 8
v 5 2 7
v 5 2 5
v 5 2 4
v 5 2 2
v 5 3 8
v 5 3 7
v 5 3 5
v 5 3 4
v 5 4 7
v 5 4 5
v 13 2 -0
v 13 2 -1
v 13 3 -0
v 13 3 -1
v 14 1 1
v 14 1 -2
v 14 2 -0
v 14 2 -1
v 14 3 -0
v 14 3 -1
v 14 3 -2
v 14 4 1
v 14 4 -0
v 14 4 -1
v 14 4 -2
v -12 1 1
v -12 1 -2
v -12 2 -0
v -12 2 -1
v -12 3 -0
v -12 3 -1
v -12 4 1
v -12 4 -2
v -11 2 -0
v -11 2 -1
v -11 3 -0
v -11 3 -1
v -2 4 -2
v -2 4 -3
v -2 5 -2
v -2 5 -3
v -2 5 -4
v -2 6 -3
v -2 6 -4
v -2 6 -5
v -2 6 -6
v -2 7 -4
v -2 7 -5
v -2 8 -4
v -2 8 -6
v 6 1 7
v 6 1 5
v 6 1 2
v 6 2 8
v 6 2 7
v 6 2 5
v 6 2 4
v 6 2 2
v 6 3 8
v 6 3 7
v 6 3 5
v 6 3 4
v 6 4 7
v 6 4 5
v 7 2 7
v 7 2 5
v 7 3 7
v 7 3 5
v 14 2 -0
v 14 2 -1
v 14 3 -0
v 14 3 -1
v 15 1 1
v 15 1 -0
v 15 1 -2
v 15 2 -0
v 15 2 -1
v 15 3 -0
v 15 3 -1
v 15 4 1
v 15 4 -2
v 16 0 1
v 16 0 -0
v 16 0 -2
v 16 1 2
v 16 1 1
v 16 1 -0
v 16 1 -2
v 16 1 -3
v 16 4 2
v 16 4 1
v 16 4 -2
v 16 4 -3
v 16 5 1
v 16 5 -2
v 5 2 8
v 5 3 8
v 6 2 8
v 6 3 8
v 4 2 7
v 4 3 7
v 5 1 7
v 5 2 7
v 5 3 7
v 5 4 7
v 6 1 7
v 6 2 7
v 6 3 7
v 6 4 7
v 7 2 7
v 7 3 7
v -14 1 2
v -14 2 2
v -14 4 2
v -13 1 2
v -13 2 2
v 5 1 2
v 5 2 2
v 6 1 2
v 6 2 2
v 9 1 2
v 9 3 2
v 11 1 2
v 11 3 2
v 16 1 2
v 16 4 2
v -14 0 1
v -14 1 1
v -14 4 1
v -14 5 1
v -13 1 1
v -13 4 1
v -13 5 1
v -12 4 1
v -12 5 1
v -10 0 1
v -10 1 1
v -9 0 1
v -9 1 1
v -4 4 1
v -4 5 1
v -3 4 1
v -3 5 1
v 3 4 1
v 3 5 1
v 4 4 1
v 4 5 1
v 9 1 1
v 11 1 1
v 15 0 1
v 15 1 1
v 16 0 1
v 16 1 1
v 16 4 1
v 16 5 1
v -12 2 -0
v -12 3 -0
v -11 2 -0
v -11 3 -0
v 13 2 -0
v 13 3 -0
v 14 2 -0
v 14 3 -0
v -13 2 -1
v -13 3 -1
v -12 2 -1
v -12 3 -1
v 14 2 -1
v 14 3 -1
v 15 2 -1
v 15 3 -1
v -14 1 -2
v -14 4 -2
v -13 1 -2
v -13 4 -2
v -12 1 -2
v -12 4 -2
v -9 2 -2
v -9 3 -2
v -8 2 -2
v -8 3 -2
v -1 3 -2
v -1 4 -2
v 0 1 -2
v 0 2 -2
v 0 3 -2
v 0 4 -2
v 1 1 -2
v 1 2 -2
v 6 1 -2
v 6 2 -2
v 7 1 -2
v 7 2 -2
v 13 3 -2
v 13 4 -2
v 14 1 -2
v 14 3 -2
v 14 4 -2
v 15 1 -2
v 15 4 -2
v 16 1 -2
v 16 4 -2
v -3 5 -3
v -3 6 -3
v -2 5 -3
v -2 6 -3
v -3 6 -4
v -3 7 -4
v -3 8 -4
v -2 6 -4
v -2 7 -4
v -2 8 -4
v 4 2 5
v 4 3 5
v 5 2 5
v 5 3 5
v 5 4 5
v 6 2 5
v 6 3 5
v 6 4 5
v 7 2 5
v 7 3 5
v 5 2 4
v 5 3 4
v 6 2 4
v 6 3 4
v -14 1 1
v -14 2 1
v -14 4 1
v -13 1 1
v -13 2 1
v -13 4 1
v -12 1 1
v -12 4 1
v -10 1 1
v -9 1 1
v -4 4 1
v -3 4 1
v 3 4 1
v 4 4 1
v 9 1 1
v 9 3 1
v 11 1 1
v 11 3 1
v 14 1 1
v 14 4 1
v 15 1 1
v 15 4 1
v 16 1 1
v 16 4 1
v -13 2 -0
v -13 3 -0
v -12 2 -0
v -12 3 -0
v 14 2 -0
v 14 3 -0
v 15 2 -0
v 15 3 -0
v -12 2 -1
v -12 3 -1
v -11 2 -1
v -11 3 -1
v 13 2 -1
v 13 3 -1
v 14 2 -1
v 14 3 -1
v -14 0 -2
v -14 1 -2
v -14 4 -2
v -14 5 -2
v -3 4 -2
v -3 5 -2
v -2 4 -2
v -2 5 -2
v -1 4 -2
v 0 1 -2
v 0 4 -2
v 1 1 -2
v 6 1 -2
v 7 1 -2
v 13 4 -2
v 14 4 -2
v 16 0 -2
v 16 1 -2
v 16 4 -2
v 16 5 -2
v -14 1 -3
v -14 4 -3
v -9 2 -3
v -9 3 -3
v -8 2 -3
v -8 3 -3
v -3 4 -3
v -3 5 -3
v -2 4 -3
v -2 5 -3
v -1 3 -3
v -1 4 -3
v 0 1 -3
v 0 2 -3
v 0 3 -3
v 0 4 -3
v 1 1 -3
v 1 2 -3
v 6 1 -3
v 6 2 -3
v 7 1 -3
v 7 2 -3
v 13 3 -3
v 13 4 -3
v 14 3 -3
v 14 4 -3
v 16 1 -3
v 16 4 -3
v -3 5 -4
v -3 6 -4
v -2 5 -4
v -2 6 -4
v -3 6 -6
v -3 8 -6
v -2 6 -6
v -2 8 -6
v -14 0 1
v -10 0 1
v -9 0 1
v 15 0 1
v 16 0 1
v -10 0 -0
v -9 0 -0
v 15 0 -0
v 16 0 -0
v -14 0 -2
v 16 0 -2
v 5 1 7
v 6 1 7
v 5 1 5
v 6 1 5
v -14 1 2
v -13 1 2
v 5 1 2
v 6 1 2
v 9 1 2
v 11 1 2
v 16 1 2
v -14 1 1
v -13 1 1
v -10 1 1
v -9 1 1
v 9 1 1
v 11 1 1
v 15 1 1
v 16 1 1
v -14 1 -2
v 0 1 -2
v 1 1 -2
v 6 1 -2
v 7 1 -2
v 16 1 -2
v -14 1 -3
v 0 1 -3
v 1 1 -3
v 6 1 -3
v 7 1 -3
v 16 1 -3
v 5 2 8
v 6 2 8
v 4 2 7
v 5 2 7
v 6 2 7
v 7 2 7
v 4 2 5
v 5 2 5
v 6 2 5
v 7 2 5
v -12 2 -0
v -11 2 -0
v 13 2 -0
v 14 2 -0
v -12 2 -1
v -11 2 -1
v 13 2 -1
v 14 2 -1
v -13 3 -0
v -12 3 -0
v 14 3 -0
v 15 3 -0
v -13 3 -1
v -12 3 -1
v 14 3 -1
v 15 3 -1
v -14 4 1
v -13 4 1
v -12 4 1
v -4 4 1
v -3 4 1
v 3 4 1
v 4 4 1
v 14 4 1
v 15 4 1
v 16 4 1
v -4 4 -0
v -3 4 -0
v 3 4 -0
v 4 4 -0
v 13 4 -0
v 14 4 -0
v 13 4 -1
v 14 4 -1
v -14 4 -2
v -13 4 -2
v -12 4 -2
v -1 4 -2
v 0 4 -2
v 13 4 -2
v 14 4 -2
v 15 4 -2
v 16 4 -2
v -3 5 -3
v -2 5 -3
v -3 5 -4
v -2 5 -4
v -3 6 -4
v -2 6 -4
v -3 6 -5
v -2 6 -5
v -3 6 -6
v -2 6 -6
v -14 1 1
v -13 1 1
v -12 1 1
v -10 1 1
v -9 1 1
v 9 1 1
v 11 1 1
v 14 1 1
v 15 1 1
v 16 1 1
v -10 1 -0
v -9 1 -0
v 15 1 -0
v 16 1 -0
v -14 1 -2
v -13 1 -2
v -12 1 -2
v 0 1 -2
v 1 1 -2
v 6 1 -2
v 7 1 -2
v 14 1 -2
v 15 1 -2
v 16 1 -2
v 5 2 4
v 6 2 4
v 5 2 2
v 6 2 2
v -13 2 -0
v -12 2 -0
v 14 2 -0
v 15 2 -0
v -13 2 -1
v -12 2 -1
v 14 2 -1
v 15 2 -1
v 5 3 8
v 6 3 8
v 4 3 7
v 5 3 7
v 6 3 7
v 7 3 7
v 4 3 5
v 5 3 5
v 6 3 5
v 7 3 5
v 5 3 4
v 6 3 4
v -12 3 -0
v -11 3 -0
v 13 3 -0
v 14 3 -0
v -12 3 -1
v -11 3 -1
v 13 3 -1
v 14 3 -1
v 5 4 7
v 6 4 7
v 5 4 5
v 6 4 5
v -14 4 2
v 16 4 2
v -14 4 1
v -13 4 1
v -12 4 1
v -4 4 1
v -3 4 1
v 3 4 1
v 4 4 1
v 16 4 1
v -14 4 -2
v -3 4 -2
v -2 4 -2
v -1 4 -2
v 0 4 -2
v 13 4 -2
v 14 4 -2
v 16 4 -2
v -14 4 -3
v -3 4 -3
v -2 4 -3
v -1 4 -3
v 0 4 -3
v 13 4 -3
v 14 4 -3
v 16 4 -3
v -14 5 1
v -13 5 1
v -12 5 1
v -4 5 1
v -3 5 1
v 3 5 1
v 4 5 1
v 16 5 1
v -13 5 -0
v -12 5 -0
v -4 5 -0
v -3 5 -0
v 3 5 -0
v 4 5 -0
v 13 5 -0
v 14 5 -0
v 13 5 -1
v 14 5 -1
v -14 5 -2
v -3 5 -2
v -2 5 -2
v 16 5 -2
v -3 5 -3
v -2 5 -3
v -3 6 -3
v -2 6 -3
v -3 6 -4
v -2 6 -4
v -3 8 -4
v -2 8 -4
v -3 8 -6
v -2 8 -6

# faces
f 4/1/1 2/1/1 1/1/1
f 5/1/1 2/1/1 4/1/1
f 7/2/1 4/2/1 3/2/1
f 8/2/1 4/2/1 7/2/1
f 9/1/1 8/1/1 7/1/1
f 10/1/1 8/1/1 9/1/1
f 11/1/1 6/1/1 5/1/1
f 12/1/1 6/1/1 11/1/1
f 13/1/1 11/1/1 10/1/1
f 14/1/1 11/1/1 13/1/1
f 17/1/1 16/1/1 15/1/1
f 18/1/1 16/1/1 17/1/1
f 19/1/1 16/1/1 18/1/1
f 20/1/1 18/1/1 17/1/1
f 21/1/1 16/1/1 19/1/1
f 22/1/1 20/1/1 17/1/1
f 22/1/1 21/1/1 20/1/1
f 23/1/1 16/1/1 21/1/1
f 23/1/1 21/1/1 22/1/1
f 26/1/1 25/1/1 24/1/1
f 27/1/1 25/1/1 26/1/1
f 30/1/1 29/1/1 28/1/1
f 31/1/1 29/1/1 30/1/1
f 33/1/1 32/1/1 31/1/1
f 34/1/1 32/1/1 33/1/1
f 37/1/1 35/1/1 34/1/1
f 38/3/1 36/3/1 35/3/1
f 38/1/1 35/1/1 37/1/1
f 39/3/1 38/3/1 37/3/1
f 40/3/1 36/3/1 38/3/1
f 40/3/1 38/3/1 39/3/1
f 43/3/1 42/3/1 41/3/1
f 44/3/1 42/3/1 43/3/1
f 49/3/1 46/3/1 45/3/1
f 50/1/1 47/1/1 46/1/1
f 50/3/1 46/3/1 49/3/1
f 51/1/1 47/1/1 50/1/1
f 52/1/1 47/1/1 51/1/1
f 53/3/1 49/3/1 48/3/1
f 54/3/1 49/3/1 53/3/1
f 55/3/1 51/3/1 50/3/1
f 56/3/1 51/3/1 55/3/1
f 57/3/1 55/3/1 54/3/1
f 58/3/1 55/3/1 57/3/1
f 61/1/1 60/1/1 59/1/1
f 62/1/1 60/1/1 61/1/1
f 65/1/1 64/1/1 63/1/1
f 66/1/1 64/1/1 65/1/1
f 67/1/1 65/1/1 63/1/1
f 68/1/1 64/1/1 66/1/1
f 69/1/1 64/1/1 68/1/1
f 70/1/1 67/1/1 63/1/1
f 70/1/1 68/1/1 67/1/1
f 70/1/1 69/1/1 68/1/1
f 71/1/1 69/1/1 70/1/1
f 72/1/1 69/1/1 71/1/1
f 73/1/1 69/1/1 72/1/1
f 74/1/2 75/1/2 76/1/2
f 76/1/2 75/1/2 77/1/2
f 74/1/2 76/1/2 78/1/2
f 77/1/2 75/1/2 79/1/2
f 74/1/2 78/1/2 80/1/2
f 78/1/2 79/1/2 80/1/2
f 79/1/2 75/1/2 81/1/2
f 80/1/2 79/1/2 81/1/2
f 82/1/2 83/1/2 84/1/2
f 84/1/2 83/1/2 85/1/2
f 86/1/2 87/1/2 88/1/2
f 88/1/2 87/1/2 89/1/2
f 89/1/2 90/1/2 91/1/2
f 91/1/2 90/1/2 92/1/2
f 92/1/2 93/1/2 95/1/2
f 93/3/2 94/3/2 96/3/2
f 95/1/2 93/1/2 96/1/2
f 95/3/2 96/3/2 97/3/2
f 96/3/2 94/3/2 98/3/2
f 97/3/2 96/3/2 98/3/2
f 99/3/2 100/3/2 103/3/2
f 100/1/2 101/1/2 104/1/2
f 103/3/2 100/3/2 104/3/2
f 104/1/2 101/1/2 105/1/2
f 105/1/2 101/1/2 106/1/2
f 102/3/2 103/3/2 107/3/2
f 107/3/2 103/3/2 108/3/2
f 104/3/2 105/3/2 109/3/2
f 109/3/2 105/3/2 110/3/2
f 108/3/2 109/3/2 111/3/2
f 111/3/2 109/3/2 112/3/2
f 113/3/2 114/3/2 115/3/2
f 115/3/2 114/3/2 116/3/2
f 117/1/2 118/1/2 119/1/2
f 119/1/2 118/1/2 120/1/2
f 121/1/2 122/1/2 124/1/2
f 122/1/2 123/1/2 124/1/2
f 124/1/2 123/1/2 125/1/2
f 121/1/2 124/1/2 126/1/2
f 125/1/2 123/1/2 127/1/2
f 121/1/2 126/1/2 128/1/2
f 126/1/2 127/1/2 128/1/2
f 127/1/2 123/1/2 129/1/2
f 128/1/2 127/1/2 129/1/2
f 130/2/2 131/2/2 134/2/2
f 131/1/2 132/1/2 135/1/2
f 134/2/2 131/2/2 135/2/2
f 135/1/2 132/1/2 136/1/2
f 133/1/2 134/1/2 138/1/2
f 138/1/2 134/1/2 139/1/2
f 136/1/2 137/1/2 140/1/2
f 140/1/2 137/1/2 141/1/2
f 139/1/2 140/1/2 142/1/2
f 142/1/2 140/1/2 143/1/2
f 146/3/3 145/3/3 144/3/3
f 147/3/3 145/3/3 146/3/3
f 151/3/3 149/3/3 148/3/3
f 152/3/3 149/3/3 151/3/3
f 154/3/3 151/3/3 150/3/3
f 155/3/3 151/3/3 154/3/3
f 156/3/3 153/3/3 152/3/3
f 157/3/3 153/3/3 156/3/3
f 158/3/3 156/3/3 155/3/3
f 159/3/3 156/3/3 158/3/3
f 163/2/3 161/2/3 160/2/3
f 164/1/3 162/1/3 161/1/3
f 164/2/3 161/2/3 163/2/3
f 165/1/3 164/1/3 163/1/3
f 166/1/3 162/1/3 164/1/3
f 166/1/3 164/1/3 165/1/3
f 168/1/3 162/1/3 166/1/3
f 169/1/3 168/1/3 167/1/3
f 170/1/3 162/1/3 168/1/3
f 170/1/3 168/1/3 169/1/3
f 171/2/3 170/2/3 169/2/3
f 172/1/3 162/1/3 170/1/3
f 172/2/3 170/2/3 171/2/3
f 173/1/3 172/1/3 171/1/3
f 174/1/3 162/1/3 172/1/3
f 174/1/3 172/1/3 173/1/3
f 179/1/3 176/1/3 175/1/3
f 180/1/3 178/1/3 177/1/3
f 181/1/3 178/1/3 180/1/3
f 182/2/3 181/2/3 180/2/3
f 183/2/3 181/2/3 182/2/3
f 184/1/3 179/1/3 175/1/3
f 185/1/3 179/1/3 184/1/3
f 186/2/3 185/2/3 184/2/3
f 187/2/3 185/2/3 186/2/3
f 188/1/3 183/1/3 182/1/3
f 189/1/3 183/1/3 188/1/3
f 190/2/3 189/2/3 188/2/3
f 191/2/3 189/2/3 190/2/3
f 192/1/3 191/1/3 190/1/3
f 193/1/3 191/1/3 192/1/3
f 194/2/3 193/2/3 192/2/3
f 195/2/3 193/2/3 194/2/3
f 196/1/3 187/1/3 186/1/3
f 197/1/3 196/1/3 186/1/3
f 198/1/3 197/1/3 186/1/3
f 199/1/3 197/1/3 198/1/3
f 200/2/3 199/2/3 198/2/3
f 201/2/3 199/2/3 200/2/3
f 202/1/3 195/1/3 194/1/3
f 203/1/3 195/1/3 202/1/3
f 206/1/3 205/1/3 204/1/3
f 207/1/3 205/1/3 206/1/3
f 210/1/3 209/1/3 208/1/3
f 211/1/3 209/1/3 210/1/3
f 214/1/3 213/1/3 212/1/3
f 215/1/3 213/1/3 214/1/3
f 218/1/3 217/1/3 216/1/3
f 219/1/3 217/1/3 218/1/3
f 222/1/3 221/1/3 220/1/3
f 223/1/3 221/1/3 222/1/3
f 226/1/3 225/1/3 224/1/3
f 227/1/3 225/1/3 226/1/3
f 228/1/3 226/1/3 224/1/3
f 228/2/3 227/2/3 226/2/3
f 229/1/3 225/1/3 227/1/3
f 229/2/3 227/2/3 228/2/3
f 230/1/3 229/1/3 228/1/3
f 230/1/3 225/1/3 229/1/3
f 231/1/3 225/1/3 230/1/3
f 232/1/3 228/1/3 224/1/3
f 232/1/3 230/1/3 228/1/3
f 233/1/3 230/1/3 232/1/3
f 234/2/3 231/2/3 230/2/3
f 234/1/3 230/1/3 233/1/3
f 235/2/3 231/2/3 234/2/3
f 236/2/3 233/2/3 232/2/3
f 237/1/3 234/1/3 233/1/3
f 237/2/3 233/2/3 236/2/3
f 237/1/3 235/1/3 234/1/3
f 238/1/3 237/1/3 236/1/3
f 239/1/3 235/1/3 237/1/3
f 239/1/3 237/1/3 238/1/3
f 240/2/3 239/2/3 238/2/3
f 241/1/3 235/1/3 239/1/3
f 241/2/3 239/2/3 240/2/3
f 242/1/3 241/1/3 240/1/3
f 242/1/3 235/1/3 241/1/3
f 243/1/3 235/1/3 242/1/3
f 244/1/3 242/1/3 240/1/3
f 245/2/3 243/2/3 242/2/3
f 245/1/3 242/1/3 244/1/3
f 246/2/3 243/2/3 245/2/3
f 249/1/3 248/1/3 247/1/3
f 250/1/3 248/1/3 249/1/3
f 253/1/3 252/1/3 251/1/3
f 254/1/3 252/1/3 253/1/3
f 258/1/3 256/1/3 255/1/3
f 259/3/3 257/3/3 256/3/3
f 259/1/3 256/1/3 258/1/3
f 260/3/3 257/3/3 259/3/3
f 261/3/4 262/3/4 263/3/4
f 263/3/4 262/3/4 264/3/4
f 264/3/4 265/3/4 267/3/4
f 267/3/4 265/3/4 268/3/4
f 266/3/4 267/3/4 269/3/4
f 269/3/4 267/3/4 270/3/4
f 271/3/4 272/3/4 273/3/4
f 273/3/4 272/3/4 274/3/4
f 275/2/4 276/2/4 278/2/4
f 276/1/4 277/1/4 279/1/4
f 278/2/4 276/2/4 279/2/4
f 279/1/4 277/1/4 280/1/4
f 281/1/4 282/1/4 283/1/4
f 283/1/4 282/1/4 284/1/4
f 284/1/4 282/1/4 285/1/4
f 284/1/4 285/1/4 286/1/4
f 284/1/4 286/1/4 287/1/4
f 284/1/4 287/1/4 288/1/4
f 284/1/4 288/1/4 289/1/4
f 289/1/4 288/1/4 290/1/4
f 289/2/4 290/2/4 291/2/4
f 290/1/4 288/1/4 292/1/4
f 291/2/4 290/2/4 292/2/4
f 291/1/4 292/1/4 293/1/4
f 292/1/4 288/1/4 294/1/4
f 293/1/4 292/1/4 294/1/4
f 295/1/4 296/1/4 297/1/4
f 297/1/4 296/1/4 298/1/4
f 299/1/4 300/1/4 301/1/4
f 301/1/4 300/1/4 302/1/4
f 303/1/4 304/1/4 305/1/4
f 305/1/4 304/1/4 306/1/4
f 307/1/4 308/1/4 309/1/4
f 309/1/4 308/1/4 310/1/4
f 311/1/4 312/1/4 313/1/4
f 313/1/4 312/1/4 314/1/4
f 317/1/4 318/1/4 319/1/4
f 319/1/4 318/1/4 320/1/4
f 321/1/4 322/1/4 323/1/4
f 315/1/4 316/1/4 324/1/4
f 323/1/4 322/1/4 325/1/4
f 315/1/4 324/1/4 326/1/4
f 315/1/4 326/1/4 327/1/4
f 315/1/4 327/1/4 328/1/4
f 325/1/4 322/1/4 329/1/4
f 329/1/4 322/1/4 330/1/4
f 315/1/4 328/1/4 331/1/4
f 331/1/4 328/1/4 332/1/4
f 330/1/4 322/1/4 333/1/4
f 333/1/4 322/1/4 334/1/4
f 335/1/4 336/1/4 337/1/4
f 337/1/4 336/1/4 338/1/4
f 335/1/4 337/1/4 339/1/4
f 337/2/4 338/2/4 339/2/4
f 338/1/4 336/1/4 340/1/4
f 339/2/4 338/2/4 340/2/4
f 339/1/4 340/1/4 341/1/4
f 340/1/4 336/1/4 341/1/4
f 339/1/4 341/1/4 343/1/4
f 341/1/4 342/1/4 343/1/4
f 343/1/4 342/1/4 344/1/4
f 339/1/4 343/1/4 345/1/4
f 345/1/4 343/1/4 346/1/4
f 335/1/4 339/1/4 347/1/4
f 339/1/4 345/1/4 347/1/4
f 347/1/4 345/1/4 348/1/4
f 345/2/4 346/2/4 349/2/4
f 348/1/4 345/1/4 349/1/4
f 349/2/4 346/2/4 350/2/4
f 347/2/4 348/2/4 351/2/4
f 348/1/4 349/1/4 352/1/4
f 351/2/4 348/2/4 352/2/4
f 349/1/4 350/1/4 352/1/4
f 351/1/4 352/1/4 353/1/4
f 352/1/4 350/1/4 354/1/4
f 353/1/4 352/1/4 354/1/4
f 353/2/4 354/2/4 355/2/4
f 354/1/4 350/1/4 356/1/4
f 355/2/4 354/2/4 356/2/4
f 355/1/4 356/1/4 357/1/4
f 356/1/4 350/1/4 357/1/4
f 357/1/4 350/1/4 358/1/4
f 355/1/4 357/1/4 359/1/4
f 357/2/4 358/2/4 359/2/4
f 359/2/4 358/2/4 360/2/4
f 355/1/4 359/1/4 361/1/4
f 359/1/4 360/1/4 361/1/4
f 361/1/4 360/1/4 362/1/4
f 363/1/4 364/1/4 365/1/4
f 365/1/4 364/1/4 366/1/4
f 367/3/4 368/3/4 369/3/4
f 369/3/4 368/3/4 370/3/4
f 376/1/5 372/1/5 371/1/5
f 376/2/5 373/2/5 372/2/5
f 377/1/5 374/1/5 373/1/5
f 377/2/5 373/2/5 376/2/5
f 378/2/5 375/2/5 374/2/5
f 378/1/5 374/1/5 377/1/5
f 379/2/5 375/2/5 378/2/5
f 380/1/5 377/1/5 376/1/5
f 380/1/5 376/1/5 371/1/5
f 380/1/5 379/1/5 378/1/5
f 380/1/5 378/1/5 377/1/5
f 381/1/5 379/1/5 380/1/5
f 384/3/5 383/3/5 382/3/5
f 385/3/5 383/3/5 384/3/5
f 388/1/5 385/1/5 384/1/5
f 389/1/5 385/1/5 388/1/5
f 393/2/5 387/2/5 386/2/5
f 394/1/5 389/1/5 388/1/5
f 394/2/5 387/2/5 393/2/5
f 394/1/5 388/1/5 387/1/5
f 394/1/5 390/1/5 389/1/5
f 395/1/5 390/1/5 394/1/5
f 396/1/5 390/1/5 395/1/5
f 397/2/5 391/2/5 390/2/5
f 397/1/5 390/1/5 396/1/5
f 398/1/5 392/1/5 391/1/5
f 398/2/5 391/2/5 397/2/5
f 399/1/5 392/1/5 398/1/5
f 400/1/5 392/1/5 399/1/5
f 407/1/5 402/1/5 401/1/5
f 408/2/5 403/2/5 402/2/5
f 408/1/5 402/1/5 407/1/5
f 409/1/5 404/1/5 403/1/5
f 409/2/5 403/2/5 408/2/5
f 410/2/5 405/2/5 404/2/5
f 410/1/5 404/1/5 409/1/5
f 411/1/5 406/1/5 405/1/5
f 411/2/5 405/2/5 410/2/5
f 412/1/5 406/1/5 411/1/5
f 416/3/5 414/3/5 413/3/5
f 417/3/5 414/3/5 416/3/5
f 419/3/5 416/3/5 415/3/5
f 420/3/5 416/3/5 419/3/5
f 421/3/5 418/3/5 417/3/5
f 422/3/5 418/3/5 421/3/5
f 427/1/5 424/1/5 423/1/5
f 428/1/5 424/1/5 427/1/5
f 429/1/5 426/1/5 425/1/5
f 430/1/5 426/1/5 429/1/5
f 435/1/5 432/1/5 431/1/5
f 436/1/5 432/1/5 435/1/5
f 437/1/5 434/1/5 433/1/5
f 438/1/5 434/1/5 437/1/5
f 449/1/5 442/1/5 441/1/5
f 449/2/5 443/2/5 442/2/5
f 450/1/5 444/1/5 443/1/5
f 450/2/5 443/2/5 449/2/5
f 451/2/5 445/2/5 444/2/5
f 451/1/5 444/1/5 450/1/5
f 452/1/5 446/1/5 445/1/5
f 452/2/5 445/2/5 451/2/5
f 453/1/5 446/1/5 452/1/5
f 454/1/5 446/1/5 453/1/5
f 455/1/5 451/1/5 450/1/5
f 455/1/5 450/1/5 449/1/5
f 455/2/5 454/2/5 453/2/5
f 455/1/5 453/1/5 452/1/5
f 455/1/5 452/1/5 451/1/5
f 456/2/5 454/2/5 455/2/5
f 457/1/5 440/1/5 439/1/5
f 458/1/5 440/1/5 457/1/5
f 459/1/5 449/1/5 441/1/5
f 459/1/5 455/1/5 449/1/5
f 459/1/5 456/1/5 455/1/5
f 460/1/5 456/1/5 459/1/5
f 461/1/5 456/1/5 460/1/5
f 462/1/5 456/1/5 461/1/5
f 463/1/5 456/1/5 462/1/5
f 464/1/5 448/1/5 447/1/5
f 465/1/5 448/1/5 464/1/5
f 468/1/5 467/1/5 466/1/5
f 469/1/5 467/1/5 468/1/5
f 472/1/5 471/1/5 470/1/5
f 473/1/5 471/1/5 472/1/5
f 474/3/5 473/3/5 472/3/5
f 475/3/5 473/3/5 474/3/5
f 478/1/6 479/1/6 486/1/6
f 479/2/6 480/2/6 486/2/6
f 482/1/6 483/1/6 487/1/6
f 486/2/6 480/2/6 487/2/6
f 480/1/6 481/1/6 487/1/6
f 481/1/6 482/1/6 487/1/6
f 484/2/6 485/2/6 488/2/6
f 488/2/6 485/2/6 489/2/6
f 476/1/6 477/1/6 490/1/6
f 490/1/6 477/1/6 491/1/6
f 478/1/6 486/1/6 492/1/6
f 486/1/6 487/1/6 492/1/6
f 487/1/6 483/1/6 493/1/6
f 492/1/6 487/1/6 493/1/6
f 493/1/6 483/1/6 494/1/6
f 494/1/6 483/1/6 495/1/6
f 495/1/6 483/1/6 496/1/6
f 496/1/6 483/1/6 497/1/6
f 488/1/6 489/1/6 498/1/6
f 498/1/6 489/1/6 499/1/6
f 500/1/6 501/1/6 502/1/6
f 502/1/6 501/1/6 503/1/6
f 504/1/6 505/1/6 508/1/6
f 508/1/6 505/1/6 509/1/6
f 506/1/6 507/1/6 510/1/6
f 510/1/6 507/1/6 511/1/6
f 512/3/6 513/3/6 515/3/6
f 515/3/6 513/3/6 516/3/6
f 514/3/6 515/3/6 518/3/6
f 518/3/6 515/3/6 519/3/6
f 516/3/6 517/3/6 520/3/6
f 520/3/6 517/3/6 521/3/6
f 519/3/6 520/3/6 522/3/6
f 522/3/6 520/3/6 523/3/6
f 524/1/6 525/1/6 528/1/6
f 528/1/6 525/1/6 529/1/6
f 526/1/6 527/1/6 530/1/6
f 530/1/6 527/1/6 531/1/6
f 532/3/6 533/3/6 534/3/6
f 534/3/6 533/3/6 535/3/6
f 536/1/6 537/1/6 538/1/6
f 538/1/6 537/1/6 539/1/6
f 539/1/6 537/1/6 540/1/6
f 540/1/6 537/1/6 541/1/6
f 541/1/6 537/1/6 542/1/6
f 542/1/6 537/1/6 543/1/6
f 543/1/6 537/1/6 544/1/6
f 544/1/6 537/1/6 545/1/6
f 546/1/6 547/1/6 554/1/6
f 554/1/6 547/1/6 555/1/6
f 548/1/6 549/1/6 556/1/6
f 549/2/6 550/2/6 557/2/6
f 556/1/6 549/1/6 557/1/6
f 550/1/6 551/1/6 558/1/6
f 557/2/6 550/2/6 558/2/6
f 551/2/6 552/2/6 559/2/6
f 558/1/6 551/1/6 559/1/6
f 552/1/6 553/1/6 560/1/6
f 559/2/6 552/2/6 560/2/6
f 560/1/6 553/1/6 561/1/6
f 562/1/6 563/1/6 570/1/6
f 563/2/6 564/2/6 570/2/6
f 564/1/6 565/1/6 571/1/6
f 570/2/6 564/2/6 571/2/6
f 565/2/6 566/2/6 572/2/6
f 571/1/6 565/1/6 572/1/6
f 566/1/6 567/1/6 573/1/6
f 572/2/6 566/2/6 573/2/6
f 567/2/6 568/2/6 574/2/6
f 573/1/6 567/1/6 574/1/6
f 568/1/6 569/1/6 575/1/6
f 574/2/6 568/2/6 575/2/6
f 575/1/6 569/1/6 576/1/6
f 576/1/6 569/1/6 577/1/6
f 573/1/6 574/1/6 578/1/6
f 572/1/6 573/1/6 578/1/6
f 576/2/6 577/2/6 578/2/6
f 575/1/6 576/1/6 578/1/6
f 574/1/6 575/1/6 578/1/6
f 571/1/6 572/1/6 578/1/6
f 570/1/6 571/1/6 578/1/6
f 577/1/6 569/1/6 579/1/6
f 578/2/6 577/2/6 579/2/6
f 570/1/6 578/1/6 580/1/6
f 562/1/6 570/1/6 580/1/6
f 578/1/6 579/1/6 580/1/6
f 580/1/6 579/1/6 581/1/6
f 581/1/6 579/1/6 582/1/6
f 579/1/6 569/1/6 583/1/6
f 582/1/6 579/1/6 583/1/6
f 581/1/6 582/1/6 584/1/6
f 584/1/6 582/1/6 585/1/6
f 586/1/6 587/1/6 588/1/6
f 588/1/6 587/1/6 589/1/6
f 590/3/6 591/3/6 592/3/6
f 592/3/6 591/3/6 593/3/6
