# MagicaVoxel @ Ephtracy

# group
g Dead log 2

# material
mtllib Dead log 2.mtl
usemtl palette

# normals
vn -1 0 0
vn 1 0 0
vn 0 0 1
vn 0 0 -1
vn 0 -1 0
vn 0 1 0

# texcoords
vt 0.533203 0.5
vt 0.537109 0.5
vt 0.912109 0.5

# verts
v -14 0 1
v -14 0 -2
v -14 1 2
v -14 1 1
v -14 1 -2
v -14 1 -3
v -14 2 2
v -14 2 1
v -14 4 2
v -14 4 1
v -14 4 -2
v -14 4 -3
v -14 5 1
v -14 5 -2
v -13 1 1
v -13 1 -2
v -13 2 1
v -13 2 -0
v -13 2 -1
v -13 3 -0
v -13 3 -1
v -13 4 1
v -13 4 -2
v -12 2 -0
v -12 2 -1
v -12 3 -0
v -12 3 -1
v -3 4 -2
v -3 4 -3
v -3 5 -2
v -3 5 -3
v -3 5 -4
v -3 6 -3
v -3 6 -4
v -3 6 -5
v -3 6 -6
v -3 7 -4
v -3 7 -5
v -3 8 -4
v -3 8 -6
v 13 2 -0
v 13 2 -1
v 13 3 -0
v 13 3 -1
v 14 1 1
v 14 1 -2
v 14 2 -0
v 14 2 -1
v 14 3 -0
v 14 3 -1
v 14 3 -2
v 14 4 1
v 14 4 -0
v 14 4 -1
v 14 4 -2
v -12 1 1
v -12 1 -2
v -12 2 -0
v -12 2 -1
v -12 3 -0
v -12 3 -1
v -12 4 1
v -12 4 -2
v -11 2 -0
v -11 2 -1
v -11 3 -0
v -11 3 -1
v -2 4 -2
v -2 4 -3
v -2 5 -2
v -2 5 -3
v -2 5 -4
v -2 6 -3
v -2 6 -4
v -2 6 -5
v -2 6 -6
v -2 7 -4
v -2 7 -5
v -2 8 -4
v -2 8 -6
v 14 2 -0
v 14 2 -1
v 14 3 -0
v 14 3 -1
v 15 1 1
v 15 1 -0
v 15 1 -2
v 15 2 -0
v 15 2 -1
v 15 3 -0
v 15 3 -1
v 15 4 1
v 15 4 -2
v 16 0 1
v 16 0 -0
v 16 0 -2
v 16 1 2
v 16 1 1
v 16 1 -0
v 16 1 -2
v 16 1 -3
v 16 4 2
v 16 4 1
v 16 4 -2
v 16 4 -3
v 16 5 1
v 16 5 -2
v -14 1 2
v -14 2 2
v -14 4 2
v -13 1 2
v -13 2 2
v 9 1 2
v 9 3 2
v 11 1 2
v 11 3 2
v 16 1 2
v 16 4 2
v -14 0 1
v -14 1 1
v -14 4 1
v -14 5 1
v -13 1 1
v -13 4 1
v -13 5 1
v -12 4 1
v -12 5 1
v -10 0 1
v -10 1 1
v -9 0 1
v -9 1 1
v -4 4 1
v -4 5 1
v -3 4 1
v -3 5 1
v 3 4 1
v 3 5 1
v 4 4 1
v 4 5 1
v 9 1 1
v 11 1 1
v 15 0 1
v 15 1 1
v 16 0 1
v 16 1 1
v 16 4 1
v 16 5 1
v -12 2 -0
v -12 3 -0
v -11 2 -0
v -11 3 -0
v 13 2 -0
v 13 3 -0
v 14 2 -0
v 14 3 -0
v -13 2 -1
v -13 3 -1
v -12 2 -1
v -12 3 -1
v 14 2 -1
v 14 3 -1
v 15 2 -1
v 15 3 -1
v -14 1 -2
v -14 4 -2
v -13 1 -2
v -13 4 -2
v -12 1 -2
v -12 4 -2
v -9 2 -2
v -9 3 -2
v -8 2 -2
v -8 3 -2
v -1 3 -2
v -1 4 -2
v 0 1 -2
v 0 2 -2
v 0 3 -2
v 0 4 -2
v 1 1 -2
v 1 2 -2
v 6 1 -2
v 6 2 -2
v 7 1 -2
v 7 2 -2
v 13 3 -2
v 13 4 -2
v 14 1 -2
v 14 3 -2
v 14 4 -2
v 15 1 -2
v 15 4 -2
v 16 1 -2
v 16 4 -2
v -3 5 -3
v -3 6 -3
v -2 5 -3
v -2 6 -3
v -3 6 -4
v -3 7 -4
v -3 8 -4
v -2 6 -4
v -2 7 -4
v -2 8 -4
v -14 1 1
v -14 2 1
v -14 4 1
v -13 1 1
v -13 2 1
v -13 4 1
v -12 1 1
v -12 4 1
v -10 1 1
v -9 1 1
v -4 4 1
v -3 4 1
v 3 4 1
v 4 4 1
v 9 1 1
v 9 3 1
v 11 1 1
v 11 3 1
v 14 1 1
v 14 4 1
v 15 1 1
v 15 4 1
v 16 1 1
v 16 4 1
v -13 2 -0
v -13 3 -0
v -12 2 -0
v -12 3 -0
v 14 2 -0
v 14 3 -0
v 15 2 -0
v 15 3 -0
v -12 2 -1
v -12 3 -1
v -11 2 -1
v -11 3 -1
v 13 2 -1
v 13 3 -1
v 14 2 -1
v 14 3 -1
v -14 0 -2
v -14 1 -2
v -14 4 -2
v -14 5 -2
v -3 4 -2
v -3 5 -2
v -2 4 -2
v -2 5 -2
v -1 4 -2
v 0 1 -2
v 0 4 -2
v 1 1 -2
v 6 1 -2
v 7 1 -2
v 13 4 -2
v 14 4 -2
v 16 0 -2
v 16 1 -2
v 16 4 -2
v 16 5 -2
v -14 1 -3
v -14 4 -3
v -9 2 -3
v -9 3 -3
v -8 2 -3
v -8 3 -3
v -3 4 -3
v -3 5 -3
v -2 4 -3
v -2 5 -3
v -1 3 -3
v -1 4 -3
v 0 1 -3
v 0 2 -3
v 0 3 -3
v 0 4 -3
v 1 1 -3
v 1 2 -3
v 6 1 -3
v 6 2 -3
v 7 1 -3
v 7 2 -3
v 13 3 -3
v 13 4 -3
v 14 3 -3
v 14 4 -3
v 16 1 -3
v 16 4 -3
v -3 5 -4
v -3 6 -4
v -2 5 -4
v -2 6 -4
v -3 6 -6
v -3 8 -6
v -2 6 -6
v -2 8 -6
v -14 0 1
v -10 0 1
v -9 0 1
v 15 0 1
v 16 0 1
v -10 0 -0
v -9 0 -0
v 15 0 -0
v 16 0 -0
v -14 0 -2
v 16 0 -2
v -14 1 2
v -13 1 2
v 9 1 2
v 11 1 2
v 16 1 2
v -14 1 1
v -13 1 1
v -10 1 1
v -9 1 1
v 9 1 1
v 11 1 1
v 15 1 1
v 16 1 1
v -14 1 -2
v 0 1 -2
v 1 1 -2
v 6 1 -2
v 7 1 -2
v 16 1 -2
v -14 1 -3
v 0 1 -3
v 1 1 -3
v 6 1 -3
v 7 1 -3
v 16 1 -3
v -12 2 -0
v -11 2 -0
v 13 2 -0
v 14 2 -0
v -12 2 -1
v -11 2 -1
v 13 2 -1
v 14 2 -1
v -13 3 -0
v -12 3 -0
v 14 3 -0
v 15 3 -0
v -13 3 -1
v -12 3 -1
v 14 3 -1
v 15 3 -1
v -14 4 1
v -13 4 1
v -12 4 1
v -4 4 1
v -3 4 1
v 3 4 1
v 4 4 1
v 14 4 1
v 15 4 1
v 16 4 1
v -4 4 -0
v -3 4 -0
v 3 4 -0
v 4 4 -0
v 13 4 -0
v 14 4 -0
v 13 4 -1
v 14 4 -1
v -14 4 -2
v -13 4 -2
v -12 4 -2
v -1 4 -2
v 0 4 -2
v 13 4 -2
v 14 4 -2
v 15 4 -2
v 16 4 -2
v -3 5 -3
v -2 5 -3
v -3 5 -4
v -2 5 -4
v -3 6 -4
v -2 6 -4
v -3 6 -5
v -2 6 -5
v -3 6 -6
v -2 6 -6
v -14 1 1
v -13 1 1
v -12 1 1
v -10 1 1
v -9 1 1
v 9 1 1
v 11 1 1
v 14 1 1
v 15 1 1
v 16 1 1
v -10 1 -0
v -9 1 -0
v 15 1 -0
v 16 1 -0
v -14 1 -2
v -13 1 -2
v -12 1 -2
v 0 1 -2
v 1 1 -2
v 6 1 -2
v 7 1 -2
v 14 1 -2
v 15 1 -2
v 16 1 -2
v -13 2 -0
v -12 2 -0
v 14 2 -0
v 15 2 -0
v -13 2 -1
v -12 2 -1
v 14 2 -1
v 15 2 -1
v -12 3 -0
v -11 3 -0
v 13 3 -0
v 14 3 -0
v -12 3 -1
v -11 3 -1
v 13 3 -1
v 14 3 -1
v -14 4 2
v 16 4 2
v -14 4 1
v -13 4 1
v -12 4 1
v -4 4 1
v -3 4 1
v 3 4 1
v 4 4 1
v 16 4 1
v -14 4 -2
v -3 4 -2
v -2 4 -2
v -1 4 -2
v 0 4 -2
v 13 4 -2
v 14 4 -2
v 16 4 -2
v -14 4 -3
v -3 4 -3
v -2 4 -3
v -1 4 -3
v 0 4 -3
v 13 4 -3
v 14 4 -3
v 16 4 -3
v -14 5 1
v -13 5 1
v -12 5 1
v -4 5 1
v -3 5 1
v 3 5 1
v 4 5 1
v 16 5 1
v -13 5 -0
v -12 5 -0
v -4 5 -0
v -3 5 -0
v 3 5 -0
v 4 5 -0
v 13 5 -0
v 14 5 -0
v 13 5 -1
v 14 5 -1
v -14 5 -2
v -3 5 -2
v -2 5 -2
v 16 5 -2
v -3 5 -3
v -2 5 -3
v -3 6 -3
v -2 6 -3
v -3 6 -4
v -2 6 -4
v -3 8 -4
v -2 8 -4
v -3 8 -6
v -2 8 -6

# faces
f 4/1/1 2/1/1 1/1/1
f 5/1/1 2/1/1 4/1/1
f 7/2/1 4/2/1 3/2/1
f 8/2/1 4/2/1 7/2/1
f 9/1/1 8/1/1 7/1/1
f 10/1/1 8/1/1 9/1/1
f 11/1/1 6/1/1 5/1/1
f 12/1/1 6/1/1 11/1/1
f 13/1/1 11/1/1 10/1/1
f 14/1/1 11/1/1 13/1/1
f 17/1/1 16/1/1 15/1/1
f 18/1/1 16/1/1 17/1/1
f 19/1/1 16/1/1 18/1/1
f 20/1/1 18/1/1 17/1/1
f 21/1/1 16/1/1 19/1/1
f 22/1/1 20/1/1 17/1/1
f 22/1/1 21/1/1 20/1/1
f 23/1/1 16/1/1 21/1/1
f 23/1/1 21/1/1 22/1/1
f 26/1/1 25/1/1 24/1/1
f 27/1/1 25/1/1 26/1/1
f 30/1/1 29/1/1 28/1/1
f 31/1/1 29/1/1 30/1/1
f 33/1/1 32/1/1 31/1/1
f 34/1/1 32/1/1 33/1/1
f 37/1/1 35/1/1 34/1/1
f 38/3/1 36/3/1 35/3/1
f 38/1/1 35/1/1 37/1/1
f 39/3/1 38/3/1 37/3/1
f 40/3/1 36/3/1 38/3/1
f 40/3/1 38/3/1 39/3/1
f 43/1/1 42/1/1 41/1/1
f 44/1/1 42/1/1 43/1/1
f 47/1/1 46/1/1 45/1/1
f 48/1/1 46/1/1 47/1/1
f 49/1/1 47/1/1 45/1/1
f 50/1/1 46/1/1 48/1/1
f 51/1/1 46/1/1 50/1/1
f 52/1/1 49/1/1 45/1/1
f 52/1/1 50/1/1 49/1/1
f 52/1/1 51/1/1 50/1/1
f 53/1/1 51/1/1 52/1/1
f 54/1/1 51/1/1 53/1/1
f 55/1/1 51/1/1 54/1/1
f 56/1/2 57/1/2 58/1/2
f 58/1/2 57/1/2 59/1/2
f 56/1/2 58/1/2 60/1/2
f 59/1/2 57/1/2 61/1/2
f 56/1/2 60/1/2 62/1/2
f 60/1/2 61/1/2 62/1/2
f 61/1/2 57/1/2 63/1/2
f 62/1/2 61/1/2 63/1/2
f 64/1/2 65/1/2 66/1/2
f 66/1/2 65/1/2 67/1/2
f 68/1/2 69/1/2 70/1/2
f 70/1/2 69/1/2 71/1/2
f 71/1/2 72/1/2 73/1/2
f 73/1/2 72/1/2 74/1/2
f 74/1/2 75/1/2 77/1/2
f 75/3/2 76/3/2 78/3/2
f 77/1/2 75/1/2 78/1/2
f 77/3/2 78/3/2 79/3/2
f 78/3/2 76/3/2 80/3/2
f 79/3/2 78/3/2 80/3/2
f 81/1/2 82/1/2 83/1/2
f 83/1/2 82/1/2 84/1/2
f 85/1/2 86/1/2 88/1/2
f 86/1/2 87/1/2 88/1/2
f 88/1/2 87/1/2 89/1/2
f 85/1/2 88/1/2 90/1/2
f 89/1/2 87/1/2 91/1/2
f 85/1/2 90/1/2 92/1/2
f 90/1/2 91/1/2 92/1/2
f 91/1/2 87/1/2 93/1/2
f 92/1/2 91/1/2 93/1/2
f 94/2/2 95/2/2 98/2/2
f 95/1/2 96/1/2 99/1/2
f 98/2/2 95/2/2 99/2/2
f 99/1/2 96/1/2 100/1/2
f 97/1/2 98/1/2 102/1/2
f 102/1/2 98/1/2 103/1/2
f 100/1/2 101/1/2 104/1/2
f 104/1/2 101/1/2 105/1/2
f 103/1/2 104/1/2 106/1/2
f 106/1/2 104/1/2 107/1/2
f 111/2/3 109/2/3 108/2/3
f 112/1/3 110/1/3 109/1/3
f 112/2/3 109/2/3 111/2/3
f 113/1/3 112/1/3 111/1/3
f 114/1/3 110/1/3 112/1/3
f 114/1/3 112/1/3 113/1/3
f 115/2/3 114/2/3 113/2/3
f 116/1/3 110/1/3 114/1/3
f 116/2/3 114/2/3 115/2/3
f 117/1/3 116/1/3 115/1/3
f 118/1/3 110/1/3 116/1/3
f 118/1/3 116/1/3 117/1/3
f 123/1/3 120/1/3 119/1/3
f 124/1/3 122/1/3 121/1/3
f 125/1/3 122/1/3 124/1/3
f 126/2/3 125/2/3 124/2/3
f 127/2/3 125/2/3 126/2/3
f 128/1/3 123/1/3 119/1/3
f 129/1/3 123/1/3 128/1/3
f 130/2/3 129/2/3 128/2/3
f 131/2/3 129/2/3 130/2/3
f 132/1/3 127/1/3 126/1/3
f 133/1/3 127/1/3 132/1/3
f 134/2/3 133/2/3 132/2/3
f 135/2/3 133/2/3 134/2/3
f 136/1/3 135/1/3 134/1/3
f 137/1/3 135/1/3 136/1/3
f 138/2/3 137/2/3 136/2/3
f 139/2/3 137/2/3 138/2/3
f 140/1/3 131/1/3 130/1/3
f 141/1/3 140/1/3 130/1/3
f 142/1/3 141/1/3 130/1/3
f 143/1/3 141/1/3 142/1/3
f 144/2/3 143/2/3 142/2/3
f 145/2/3 143/2/3 144/2/3
f 146/1/3 139/1/3 138/1/3
f 147/1/3 139/1/3 146/1/3
f 150/1/3 149/1/3 148/1/3
f 151/1/3 149/1/3 150/1/3
f 154/1/3 153/1/3 152/1/3
f 155/1/3 153/1/3 154/1/3
f 158/1/3 157/1/3 156/1/3
f 159/1/3 157/1/3 158/1/3
f 162/1/3 161/1/3 160/1/3
f 163/1/3 161/1/3 162/1/3
f 166/1/3 165/1/3 164/1/3
f 167/1/3 165/1/3 166/1/3
f 170/1/3 169/1/3 168/1/3
f 171/1/3 169/1/3 170/1/3
f 172/1/3 170/1/3 168/1/3
f 172/2/3 171/2/3 170/2/3
f 173/1/3 169/1/3 171/1/3
f 173/2/3 171/2/3 172/2/3
f 174/1/3 173/1/3 172/1/3
f 174/1/3 169/1/3 173/1/3
f 175/1/3 169/1/3 174/1/3
f 176/1/3 172/1/3 168/1/3
f 176/1/3 174/1/3 172/1/3
f 177/1/3 174/1/3 176/1/3
f 178/2/3 175/2/3 174/2/3
f 178/1/3 174/1/3 177/1/3
f 179/2/3 175/2/3 178/2/3
f 180/2/3 177/2/3 176/2/3
f 181/1/3 178/1/3 177/1/3
f 181/2/3 177/2/3 180/2/3
f 181/1/3 179/1/3 178/1/3
f 182/1/3 181/1/3 180/1/3
f 183/1/3 179/1/3 181/1/3
f 183/1/3 181/1/3 182/1/3
f 184/2/3 183/2/3 182/2/3
f 185/1/3 179/1/3 183/1/3
f 185/2/3 183/2/3 184/2/3
f 186/1/3 185/1/3 184/1/3
f 186/1/3 179/1/3 185/1/3
f 187/1/3 179/1/3 186/1/3
f 188/1/3 186/1/3 184/1/3
f 189/2/3 187/2/3 186/2/3
f 189/1/3 186/1/3 188/1/3
f 190/2/3 187/2/3 189/2/3
f 193/1/3 192/1/3 191/1/3
f 194/1/3 192/1/3 193/1/3
f 197/1/3 196/1/3 195/1/3
f 198/1/3 196/1/3 197/1/3
f 202/1/3 200/1/3 199/1/3
f 203/3/3 201/3/3 200/3/3
f 203/1/3 200/1/3 202/1/3
f 204/3/3 201/3/3 203/3/3
f 205/2/4 206/2/4 208/2/4
f 206/1/4 207/1/4 209/1/4
f 208/2/4 206/2/4 209/2/4
f 209/1/4 207/1/4 210/1/4
f 211/1/4 212/1/4 213/1/4
f 213/1/4 212/1/4 214/1/4
f 214/1/4 212/1/4 215/1/4
f 214/1/4 215/1/4 216/1/4
f 214/1/4 216/1/4 217/1/4
f 214/1/4 217/1/4 218/1/4
f 214/1/4 218/1/4 219/1/4
f 219/1/4 218/1/4 220/1/4
f 219/2/4 220/2/4 221/2/4
f 220/1/4 218/1/4 222/1/4
f 221/2/4 220/2/4 222/2/4
f 221/1/4 222/1/4 223/1/4
f 222/1/4 218/1/4 224/1/4
f 223/1/4 222/1/4 224/1/4
f 225/1/4 226/1/4 227/1/4
f 227/1/4 226/1/4 228/1/4
f 229/1/4 230/1/4 231/1/4
f 231/1/4 230/1/4 232/1/4
f 233/1/4 234/1/4 235/1/4
f 235/1/4 234/1/4 236/1/4
f 237/1/4 238/1/4 239/1/4
f 239/1/4 238/1/4 240/1/4
f 241/1/4 242/1/4 243/1/4
f 243/1/4 242/1/4 244/1/4
f 247/1/4 248/1/4 249/1/4
f 249/1/4 248/1/4 250/1/4
f 251/1/4 252/1/4 253/1/4
f 245/1/4 246/1/4 254/1/4
f 253/1/4 252/1/4 255/1/4
f 245/1/4 254/1/4 256/1/4
f 245/1/4 256/1/4 257/1/4
f 245/1/4 257/1/4 258/1/4
f 255/1/4 252/1/4 259/1/4
f 259/1/4 252/1/4 260/1/4
f 245/1/4 258/1/4 261/1/4
f 261/1/4 258/1/4 262/1/4
f 260/1/4 252/1/4 263/1/4
f 263/1/4 252/1/4 264/1/4
f 265/1/4 266/1/4 267/1/4
f 267/1/4 266/1/4 268/1/4
f 265/1/4 267/1/4 269/1/4
f 267/2/4 268/2/4 269/2/4
f 268/1/4 266/1/4 270/1/4
f 269/2/4 268/2/4 270/2/4
f 269/1/4 270/1/4 271/1/4
f 270/1/4 266/1/4 271/1/4
f 269/1/4 271/1/4 273/1/4
f 271/1/4 272/1/4 273/1/4
f 273/1/4 272/1/4 274/1/4
f 269/1/4 273/1/4 275/1/4
f 275/1/4 273/1/4 276/1/4
f 265/1/4 269/1/4 277/1/4
f 269/1/4 275/1/4 277/1/4
f 277/1/4 275/1/4 278/1/4
f 275/2/4 276/2/4 279/2/4
f 278/1/4 275/1/4 279/1/4
f 279/2/4 276/2/4 280/2/4
f 277/2/4 278/2/4 281/2/4
f 278/1/4 279/1/4 282/1/4
f 281/2/4 278/2/4 282/2/4
f 279/1/4 280/1/4 282/1/4
f 281/1/4 282/1/4 283/1/4
f 282/1/4 280/1/4 284/1/4
f 283/1/4 282/1/4 284/1/4
f 283/2/4 284/2/4 285/2/4
f 284/1/4 280/1/4 286/1/4
f 285/2/4 284/2/4 286/2/4
f 285/1/4 286/1/4 287/1/4
f 286/1/4 280/1/4 287/1/4
f 287/1/4 280/1/4 288/1/4
f 285/1/4 287/1/4 289/1/4
f 287/2/4 288/2/4 289/2/4
f 289/2/4 288/2/4 290/2/4
f 285/1/4 289/1/4 291/1/4
f 289/1/4 290/1/4 291/1/4
f 291/1/4 290/1/4 292/1/4
f 293/1/4 294/1/4 295/1/4
f 295/1/4 294/1/4 296/1/4
f 297/3/4 298/3/4 299/3/4
f 299/3/4 298/3/4 300/3/4
f 306/1/5 302/1/5 301/1/5
f 306/2/5 303/2/5 302/2/5
f 307/1/5 304/1/5 303/1/5
f 307/2/5 303/2/5 306/2/5
f 308/2/5 305/2/5 304/2/5
f 308/1/5 304/1/5 307/1/5
f 309/2/5 305/2/5 308/2/5
f 310/1/5 307/1/5 306/1/5
f 310/1/5 306/1/5 301/1/5
f 310/1/5 309/1/5 308/1/5
f 310/1/5 308/1/5 307/1/5
f 311/1/5 309/1/5 310/1/5
f 317/2/5 313/2/5 312/2/5
f 318/1/5 314/1/5 313/1/5
f 318/2/5 313/2/5 317/2/5
f 319/1/5 314/1/5 318/1/5
f 320/1/5 314/1/5 319/1/5
f 321/2/5 315/2/5 314/2/5
f 321/1/5 314/1/5 320/1/5
f 322/1/5 316/1/5 315/1/5
f 322/2/5 315/2/5 321/2/5
f 323/1/5 316/1/5 322/1/5
f 324/1/5 316/1/5 323/1/5
f 331/1/5 326/1/5 325/1/5
f 332/2/5 327/2/5 326/2/5
f 332/1/5 326/1/5 331/1/5
f 333/1/5 328/1/5 327/1/5
f 333/2/5 327/2/5 332/2/5
f 334/2/5 329/2/5 328/2/5
f 334/1/5 328/1/5 333/1/5
f 335/1/5 330/1/5 329/1/5
f 335/2/5 329/2/5 334/2/5
f 336/1/5 330/1/5 335/1/5
f 341/1/5 338/1/5 337/1/5
f 342/1/5 338/1/5 341/1/5
f 343/1/5 340/1/5 339/1/5
f 344/1/5 340/1/5 343/1/5
f 349/1/5 346/1/5 345/1/5
f 350/1/5 346/1/5 349/1/5
f 351/1/5 348/1/5 347/1/5
f 352/1/5 348/1/5 351/1/5
f 363/1/5 356/1/5 355/1/5
f 363/2/5 357/2/5 356/2/5
f 364/1/5 358/1/5 357/1/5
f 364/2/5 357/2/5 363/2/5
f 365/2/5 359/2/5 358/2/5
f 365/1/5 358/1/5 364/1/5
f 366/1/5 360/1/5 359/1/5
f 366/2/5 359/2/5 365/2/5
f 367/1/5 360/1/5 366/1/5
f 368/1/5 360/1/5 367/1/5
f 369/1/5 365/1/5 364/1/5
f 369/1/5 364/1/5 363/1/5
f 369/2/5 368/2/5 367/2/5
f 369/1/5 367/1/5 366/1/5
f 369/1/5 366/1/5 365/1/5
f 370/2/5 368/2/5 369/2/5
f 371/1/5 354/1/5 353/1/5
f 372/1/5 354/1/5 371/1/5
f 373/1/5 363/1/5 355/1/5
f 373/1/5 369/1/5 363/1/5
f 373/1/5 370/1/5 369/1/5
f 374/1/5 370/1/5 373/1/5
f 375/1/5 370/1/5 374/1/5
f 376/1/5 370/1/5 375/1/5
f 377/1/5 370/1/5 376/1/5
f 378/1/5 362/1/5 361/1/5
f 379/1/5 362/1/5 378/1/5
f 382/1/5 381/1/5 380/1/5
f 383/1/5 381/1/5 382/1/5
f 386/1/5 385/1/5 384/1/5
f 387/1/5 385/1/5 386/1/5
f 388/3/5 387/3/5 386/3/5
f 389/3/5 387/3/5 388/3/5
f 392/1/6 393/1/6 400/1/6
f 393/2/6 394/2/6 400/2/6
f 396/1/6 397/1/6 401/1/6
f 400/2/6 394/2/6 401/2/6
f 394/1/6 395/1/6 401/1/6
f 395/1/6 396/1/6 401/1/6
f 398/2/6 399/2/6 402/2/6
f 402/2/6 399/2/6 403/2/6
f 390/1/6 391/1/6 404/1/6
f 404/1/6 391/1/6 405/1/6
f 392/1/6 400/1/6 406/1/6
f 400/1/6 401/1/6 406/1/6
f 401/1/6 397/1/6 407/1/6
f 406/1/6 401/1/6 407/1/6
f 407/1/6 397/1/6 408/1/6
f 408/1/6 397/1/6 409/1/6
f 409/1/6 397/1/6 410/1/6
f 410/1/6 397/1/6 411/1/6
f 402/1/6 403/1/6 412/1/6
f 412/1/6 403/1/6 413/1/6
f 414/1/6 415/1/6 418/1/6
f 418/1/6 415/1/6 419/1/6
f 416/1/6 417/1/6 420/1/6
f 420/1/6 417/1/6 421/1/6
f 422/1/6 423/1/6 426/1/6
f 426/1/6 423/1/6 427/1/6
f 424/1/6 425/1/6 428/1/6
f 428/1/6 425/1/6 429/1/6
f 430/1/6 431/1/6 432/1/6
f 432/1/6 431/1/6 433/1/6
f 433/1/6 431/1/6 434/1/6
f 434/1/6 431/1/6 435/1/6
f 435/1/6 431/1/6 436/1/6
f 436/1/6 431/1/6 437/1/6
f 437/1/6 431/1/6 438/1/6
f 438/1/6 431/1/6 439/1/6
f 440/1/6 441/1/6 448/1/6
f 448/1/6 441/1/6 449/1/6
f 442/1/6 443/1/6 450/1/6
f 443/2/6 444/2/6 451/2/6
f 450/1/6 443/1/6 451/1/6
f 444/1/6 445/1/6 452/1/6
f 451/2/6 444/2/6 452/2/6
f 445/2/6 446/2/6 453/2/6
f 452/1/6 445/1/6 453/1/6
f 446/1/6 447/1/6 454/1/6
f 453/2/6 446/2/6 454/2/6
f 454/1/6 447/1/6 455/1/6
f 456/1/6 457/1/6 464/1/6
f 457/2/6 458/2/6 464/2/6
f 458/1/6 459/1/6 465/1/6
f 464/2/6 458/2/6 465/2/6
f 459/2/6 460/2/6 466/2/6
f 465/1/6 459/1/6 466/1/6
f 460/1/6 461/1/6 467/1/6
f 466/2/6 460/2/6 467/2/6
f 461/2/6 462/2/6 468/2/6
f 467/1/6 461/1/6 468/1/6
f 462/1/6 463/1/6 469/1/6
f 468/2/6 462/2/6 469/2/6
f 469/1/6 463/1/6 470/1/6
f 470/1/6 463/1/6 471/1/6
f 467/1/6 468/1/6 472/1/6
f 466/1/6 467/1/6 472/1/6
f 470/2/6 471/2/6 472/2/6
f 469/1/6 470/1/6 472/1/6
f 468/1/6 469/1/6 472/1/6
f 465/1/6 466/1/6 472/1/6
f 464/1/6 465/1/6 472/1/6
f 471/1/6 463/1/6 473/1/6
f 472/2/6 471/2/6 473/2/6
f 464/1/6 472/1/6 474/1/6
f 456/1/6 464/1/6 474/1/6
f 472/1/6 473/1/6 474/1/6
f 474/1/6 473/1/6 475/1/6
f 475/1/6 473/1/6 476/1/6
f 473/1/6 463/1/6 477/1/6
f 476/1/6 473/1/6 477/1/6
f 475/1/6 476/1/6 478/1/6
f 478/1/6 476/1/6 479/1/6
f 480/1/6 481/1/6 482/1/6
f 482/1/6 481/1/6 483/1/6
f 484/3/6 485/3/6 486/3/6
f 486/3/6 485/3/6 487/3/6
